<?xml version="1.0" encoding="UTF-8" standalone="no"?>
<!-- Created with Inkscape (http://www.inkscape.org/) -->

<svg
   version="1.1"
   id="svg2"
   width="88.287003"
   height="88.287003"
   viewBox="0 0 88.287004 88.287003"
   sodipodi:docname="bestcrop.svg"
   inkscape:version="1.4 (86a8ad7, 2024-10-11)"
   xmlns:inkscape="http://www.inkscape.org/namespaces/inkscape"
   xmlns:sodipodi="http://sodipodi.sourceforge.net/DTD/sodipodi-0.dtd"
   xmlns="http://www.w3.org/2000/svg"
   xmlns:svg="http://www.w3.org/2000/svg">
  <defs
     id="defs6">
    <filter
       style="color-interpolation-filters:sRGB"
       inkscape:label="Invert"
       id="filter2798"
       x="0"
       y="0"
       width="1"
       height="1">
      <feColorMatrix
         type="hueRotate"
         values="180"
         result="color1"
         id="feColorMatrix2794" />
      <feColorMatrix
         values="-1 0 0 0 1 0 -1 0 0 1 0 0 -1 0 1 -0.21 -0.72 -0.07 2 0 "
         result="color2"
         id="feColorMatrix2796" />
    </filter>
    <filter
       style="color-interpolation-filters:sRGB"
       inkscape:label="Invert"
       id="filter2804"
       x="0"
       y="0"
       width="1"
       height="1">
      <feColorMatrix
         type="hueRotate"
         values="180"
         result="color1"
         id="feColorMatrix2800" />
      <feColorMatrix
         values="-1 0 0 0 1 0 -1 0 0 1 0 0 -1 0 1 -0.21 -0.72 -0.07 2 0 "
         result="color2"
         id="feColorMatrix2802" />
    </filter>
    <filter
       style="color-interpolation-filters:sRGB"
       inkscape:label="Invert"
       id="filter2810"
       x="0"
       y="0"
       width="1"
       height="1">
      <feColorMatrix
         type="hueRotate"
         values="180"
         result="color1"
         id="feColorMatrix2806" />
      <feColorMatrix
         values="-1 0 0 0 1 0 -1 0 0 1 0 0 -1 0 1 -0.21 -0.72 -0.07 2 0 "
         result="color2"
         id="feColorMatrix2808" />
    </filter>
    <filter
       style="color-interpolation-filters:sRGB"
       inkscape:label="Invert"
       id="filter2816"
       x="0"
       y="0"
       width="1"
       height="1">
      <feColorMatrix
         type="hueRotate"
         values="180"
         result="color1"
         id="feColorMatrix2812" />
      <feColorMatrix
         values="-1 0 0 0 1 0 -1 0 0 1 0 0 -1 0 1 -0.21 -0.72 -0.07 2 0 "
         result="color2"
         id="feColorMatrix2814" />
    </filter>
    <filter
       style="color-interpolation-filters:sRGB"
       inkscape:label="Invert"
       id="filter2822"
       x="0"
       y="0"
       width="1"
       height="1">
      <feColorMatrix
         type="hueRotate"
         values="180"
         result="color1"
         id="feColorMatrix2818" />
      <feColorMatrix
         values="-1 0 0 0 1 0 -1 0 0 1 0 0 -1 0 1 -0.21 -0.72 -0.07 2 0 "
         result="color2"
         id="feColorMatrix2820" />
    </filter>
    <filter
       style="color-interpolation-filters:sRGB"
       inkscape:label="Invert"
       id="filter2828"
       x="0"
       y="0"
       width="1"
       height="1">
      <feColorMatrix
         type="hueRotate"
         values="180"
         result="color1"
         id="feColorMatrix2824" />
      <feColorMatrix
         values="-1 0 0 0 1 0 -1 0 0 1 0 0 -1 0 1 -0.21 -0.72 -0.07 2 0 "
         result="color2"
         id="feColorMatrix2826" />
    </filter>
    <filter
       style="color-interpolation-filters:sRGB"
       inkscape:label="Invert"
       id="filter2834"
       x="0"
       y="0"
       width="1"
       height="1">
      <feColorMatrix
         type="hueRotate"
         values="180"
         result="color1"
         id="feColorMatrix2830" />
      <feColorMatrix
         values="-1 0 0 0 1 0 -1 0 0 1 0 0 -1 0 1 -0.21 -0.72 -0.07 2 0 "
         result="color2"
         id="feColorMatrix2832" />
    </filter>
    <filter
       style="color-interpolation-filters:sRGB"
       inkscape:label="Invert"
       id="filter2840"
       x="0"
       y="0"
       width="1"
       height="1">
      <feColorMatrix
         type="hueRotate"
         values="180"
         result="color1"
         id="feColorMatrix2836" />
      <feColorMatrix
         values="-1 0 0 0 1 0 -1 0 0 1 0 0 -1 0 1 -0.21 -0.72 -0.07 2 0 "
         result="color2"
         id="feColorMatrix2838" />
    </filter>
    <filter
       style="color-interpolation-filters:sRGB"
       inkscape:label="Invert"
       id="filter2846"
       x="0"
       y="0"
       width="1"
       height="1">
      <feColorMatrix
         type="hueRotate"
         values="180"
         result="color1"
         id="feColorMatrix2842" />
      <feColorMatrix
         values="-1 0 0 0 1 0 -1 0 0 1 0 0 -1 0 1 -0.21 -0.72 -0.07 2 0 "
         result="color2"
         id="feColorMatrix2844" />
    </filter>
    <clipPath
       clipPathUnits="userSpaceOnUse"
       id="clipPath20">
      <path
         d="M 1665.29,246.133 C 1665.29,100.715 1556.53,0 1414.41,0 c -135.03,0 -244.55,112.691 -245.34,247.531 0,0 52.14,-218.8162 245.34,-218.8162 121.66,0 220.28,98.6212 220.28,220.2732 0,83.153 -46.09,155.516 -114.1,193.012 0,0 144.7,-48.812 144.7,-195.867 z"
         id="path18-1" />
    </clipPath>
    <linearGradient
       x1="0"
       y1="0"
       x2="1"
       y2="0"
       gradientUnits="userSpaceOnUse"
       gradientTransform="matrix(496.218,0,0,-496.218,1169.07,220.999)"
       spreadMethod="pad"
       id="linearGradient32">
      <stop
         style="stop-opacity:1;stop-color:#3fb93c"
         offset="0"
         id="stop22" />
      <stop
         style="stop-opacity:1;stop-color:#7ecc28"
         offset="0.338322"
         id="stop24" />
      <stop
         style="stop-opacity:1;stop-color:#bd8f56"
         offset="0.684309"
         id="stop26" />
      <stop
         style="stop-opacity:1;stop-color:#9f7719"
         offset="0.984809"
         id="stop28" />
      <stop
         style="stop-opacity:1;stop-color:#9f7719"
         offset="1"
         id="stop30" />
    </linearGradient>
    <clipPath
       clipPathUnits="userSpaceOnUse"
       id="clipPath58">
      <path
         d="m 1138.74,302.551 c 4.79,0.121 8.41,-0.985 10.86,-3.313 2.46,-2.328 3.69,-5.695 3.69,-10.101 v -0.946 c 0,-9.07 -4.91,-13.601 -14.74,-13.601 -10.58,-0.129 -19.14,-0.508 -25.69,-1.133 -6.55,-0.633 -11.9,-1.387 -16.06,-2.269 -4.15,-0.883 -7.15,-2.36 -8.97,-4.438 -1.83,-2.078 -2.99,-4.16 -3.49,-6.234 -0.51,-2.078 -0.76,-5.133 -0.76,-9.161 v -125.25 c 0,-9.07 -4.53,-13.601 -13.6,-13.601 h -3.4 c -9.07,0 -13.6,4.531 -13.6,13.601 v 128.649 c 0,7.426 0.66,13.57 1.98,18.418 1.32,4.848 3.68,9.223 7.09,13.129 3.4,3.902 8.4,6.926 15.01,9.066 6.62,2.141 14.8,3.809 24.56,5.008 9.76,1.191 22.14,1.922 37.12,2.176 z M 832.141,238.316 c 0,32.997 6.55,60.262 19.644,81.797 13.102,21.539 31.738,35.77 55.918,42.696 24.184,6.925 53.34,5.918 87.465,-3.02 7.562,-2.016 11.332,-7.121 11.332,-15.305 v -2.078 c 0,-4.789 -1.38,-8.187 -4.15,-10.199 -2.776,-2.016 -6.616,-2.394 -11.526,-1.137 -18.133,4.785 -34.16,6.993 -48.074,6.618 -13.922,-0.379 -25.852,-2.715 -35.801,-6.993 -9.949,-4.281 -18.07,-10.804 -24.367,-19.554 -6.301,-8.75 -10.898,-19.11 -13.793,-31.075 -2.898,-11.964 -4.344,-25.878 -4.344,-41.75 0,-15.867 1.446,-29.812 4.344,-41.839 2.895,-12.032 7.492,-22.418 13.793,-31.172 6.297,-8.754 14.418,-15.274 24.367,-19.551 9.949,-4.281 21.879,-6.613 35.801,-6.988 13.914,-0.379 29.941,1.824 48.074,6.609 4.91,1.258 8.75,1.008 11.526,-0.754 2.77,-1.766 4.15,-4.914 4.15,-9.445 v -3.215 c 0,-7.934 -4.15,-13.16 -12.465,-15.68 -33.879,-8.812 -62.808,-9.695 -86.805,-2.644 -23.988,7.054 -42.503,21.375 -55.539,42.98 -13.031,21.598 -19.55,48.828 -19.55,81.699 z m -74.602,20.227 H 704.91 v -75.844 c 0,-19.734 8.707,-28.054 29.992,-28.054 10.254,0 16.832,2.128 23.606,2.128 11.992,0 16.637,-4.644 16.637,-14.128 v -9.668 c 0,-9.868 -4.645,-17.028 -14.317,-18.965 -61.527,-14.7073 -110.672,0.968 -110.672,68.687 v 146.27 c 0,11.418 6.387,17.801 17.805,17.801 h 19.152 c 11.414,0 17.797,-6.383 17.797,-17.801 v -26.313 h 52.629 c 11.414,0 17.801,-6.386 17.801,-17.801 v -8.511 c 0,-11.414 -6.387,-17.801 -17.801,-17.801 z M 453.816,136.844 v 5.418 c 0,12.383 7.352,18.187 19.922,15.863 45.086,-8.703 91.325,-11.414 91.325,10.063 0,8.32 -5.997,12.96 -18.961,16.445 l -40.629,10.445 c -37.922,9.68 -54.172,28.641 -54.172,54.758 0,54.367 70.23,65.977 138.14,49.144 10.45,-2.515 15.286,-9.484 15.286,-19.929 v -4.645 c 0,-12.57 -7.352,-17.992 -19.93,-15.285 -37.531,8.129 -82.035,10.063 -82.035,-7.738 0,-6.383 5.031,-10.836 13.738,-12.961 l 43.531,-11.227 c 37.922,-9.668 56.301,-28.242 56.301,-57.652 0,-59.785 -78.355,-70.8164 -147.426,-52.625 -10.258,2.707 -15.09,9.477 -15.09,19.926 z m -81.609,100.418 c 0,18.379 -11.219,28.246 -35.984,28.246 -26.899,0 -41.211,-12.192 -44.114,-44.887 l 66.746,6.774 c 11.223,1.16 13.352,3.285 13.352,9.867 z m 4.645,-47.211 -81.84,-8.512 c 6.965,-21.672 24.57,-29.41 50.304,-29.41 12.579,0 27.668,2.129 44.305,6.191 12.574,2.899 20.121,-2.515 20.121,-15.09 v -5.808 c 0,-10.445 -4.832,-17.219 -15.09,-19.926 -20.894,-5.609 -40.629,-8.516 -58.816,-8.516 -58.625,0 -97.902,31.926 -97.902,98.485 0,62.879 33.281,98.672 98.289,98.672 54.558,0 86.871,-25.539 86.871,-73.91 0,-27.082 -11.414,-38.497 -46.242,-42.176 z m -225.356,-4.836 c 0,24.57 -12.769,32.113 -47.984,32.113 H 54.3711 V 171.09 c 0,-9.871 2.3203,-16.063 15.8672,-16.063 h 33.2737 c 35.601,0 47.984,7.356 47.984,30.188 z m -58.4296,77.39 c 35.2106,0 48.1756,7.547 48.1756,30.571 0,20.894 -12.765,28.246 -48.1756,28.246 H 70.2383 c -13.5469,0 -15.8672,-6.192 -15.8672,-16.059 V 262.605 Z M 205.867,180.57 c 0,-53.402 -38.894,-68.105 -113.9607,-68.105 H 60.1719 C 18.3828,112.465 0,127.754 0,167.996 v 140.465 c 0,40.242 18.3828,55.531 59.9805,55.531 h 26.5078 c 70.6207,0 107.1877,-14.32 107.1877,-63.851 0,-27.668 -11.223,-45.664 -33.473,-56.11 30.184,-10.058 45.664,-29.797 45.664,-63.461 z"
         id="path56" />
    </clipPath>
    <linearGradient
       x1="0"
       y1="0"
       x2="1"
       y2="0"
       gradientUnits="userSpaceOnUse"
       gradientTransform="matrix(1153.29,0,0,-1153.29,0,238.14)"
       spreadMethod="pad"
       id="linearGradient66">
      <stop
         style="stop-opacity:1;stop-color:#7ecc28"
         offset="0"
         id="stop60" />
      <stop
         style="stop-opacity:1;stop-color:#3fb93c"
         offset="0.995661"
         id="stop62" />
      <stop
         style="stop-opacity:1;stop-color:#ffffff"
         offset="1"
         id="stop64" />
    </linearGradient>
    <clipPath
       clipPathUnits="userSpaceOnUse"
       id="clipPath76">
      <path
         d="m 1781.68,135.375 c 23.42,0 40.61,5.285 51.57,15.867 10.96,10.578 16.43,28.43 16.43,53.555 0,25.125 -5.44,43.008 -16.34,53.648 -10.89,10.641 -28.11,15.961 -51.66,15.961 -9.32,0 -16.88,-0.691 -22.67,-2.074 -5.8,-1.387 -10.11,-3.684 -12.94,-6.894 -2.84,-3.211 -4.7,-6.645 -5.57,-10.297 -0.89,-3.657 -1.33,-8.375 -1.33,-14.168 V 139.34 c 16.25,-2.645 30.42,-3.965 42.51,-3.965 z m -1.89,167.184 c 33.12,0 58.09,-7.625 74.9,-22.86 16.81,-15.238 25.22,-40.176 25.22,-74.804 0,-34.512 -8.41,-59.387 -25.22,-74.625 -16.81,-15.235 -41.78,-22.856 -74.9,-22.856 -11.84,0 -25.38,0.883 -40.62,2.645 V 46.9648 c 0,-9.0703 -4.53,-13.6054 -13.6,-13.6054 h -2.83 c -9.07,0 -13.6,4.5351 -13.6,13.6054 V 247.02 c 0,19.14 5.25,33.183 15.77,42.125 10.51,8.941 28.81,13.414 54.88,13.414 z"
         id="path74" />
    </clipPath>
    <linearGradient
       x1="0"
       y1="0"
       x2="1"
       y2="0"
       gradientUnits="userSpaceOnUse"
       gradientTransform="matrix(170.775,0,0,-170.775,1709.14,167.959)"
       spreadMethod="pad"
       id="linearGradient84">
      <stop
         style="stop-opacity:1;stop-color:#bd8f56"
         offset="0"
         id="stop78" />
      <stop
         style="stop-opacity:1;stop-color:#9f7719"
         offset="0.300818"
         id="stop80" />
      <stop
         style="stop-opacity:1;stop-color:#9f7719"
         offset="1"
         id="stop82" />
    </linearGradient>
  </defs>
  <sodipodi:namedview
     id="namedview4"
     pagecolor="#ffffff"
     bordercolor="#000000"
     borderopacity="0.25"
     inkscape:showpageshadow="2"
     inkscape:pageopacity="0.0"
     inkscape:pagecheckerboard="0"
     inkscape:deskcolor="#d1d1d1"
     showgrid="false"
     inkscape:zoom="3.4755394"
     inkscape:cx="1.0070379"
     inkscape:cy="67.327679"
     inkscape:window-width="1718"
     inkscape:window-height="1368"
     inkscape:window-x="0"
     inkscape:window-y="0"
     inkscape:window-maximized="0"
     inkscape:current-layer="g8" />
  <g
     id="g8"
     inkscape:groupmode="layer"
     inkscape:label="ink_ext_XXXXXX"
     transform="matrix(1.3333333,0,0,-1.3333333,-155.876,88.287464)">
    <path
       d="m 162.42855,25.210013 c 0,-11.296039 -9.15797,-20.453442 -20.45389,-20.453442 -11.29595,0 -20.45291,9.157403 -20.45291,20.453442 0,11.296042 9.15696,20.453395 20.45291,20.453395 11.29592,0 20.45389,-9.157353 20.45389,-20.453395"
       style="fill:#ffffff;fill-opacity:0.55000001;fill-rule:nonzero;stroke:none;stroke-width:0.0999994"
       id="path12-1" />
    <g
       id="g14"
       transform="matrix(0.09999948,0,0,0.09999948,0.94739254,3.4624897e-4)"
       style="fill:#ffffff">
      <g
         id="g16"
         clip-path="url(#clipPath20)"
         style="fill:#ffffff">
        <path
           d="M 1665.29,246.133 C 1665.29,100.715 1556.53,0 1414.41,0 c -135.03,0 -244.55,112.691 -245.34,247.531 0,0 52.14,-218.8162 245.34,-218.8162 121.66,0 220.28,98.6212 220.28,220.2732 0,83.153 -46.09,155.516 -114.1,193.012 0,0 144.7,-48.812 144.7,-195.867"
           style="fill:#ffffff;fill-opacity:1;fill-rule:nonzero;stroke:none"
           id="path34-4" />
      </g>
    </g>
    <path
       d="m 138.07967,10.620189 c 0.20413,-0.535496 1.30301,-3.2355007 1.52499,-3.7644069 -0.0325,-0.019149 -0.0668,-0.0379 -0.10116,-0.056651 -0.0629,0.04686 -0.13187,0.087904 -0.18787,0.1418091 -2.03999,1.973028 -3.39699,3.3445508 -5.20698,5.5363398 -4.60498,5.57767 -7.66094,11.882739 -8.92794,19.0252 -0.17017,0.953195 -0.27819,1.916792 -0.43099,2.873087 -0.0289,0.193402 -0.13187,0.375796 -0.20088,0.563294 -0.056,-0.009 -0.112,-0.01843 -0.168,-0.02746 -0.0452,-0.335103 -0.11706,-0.669498 -0.13007,-1.005797 -0.10008,-2.668784 0.14308,-5.31057 0.69799,-7.919556 1.606,-7.549563 5.22201,-14.005329 10.67098,-19.4451703 1.41296,-1.4109332 2.92697,-2.7097559 4.74795,-3.5874798 1.23899,-0.5964868 1.883,-0.5078173 2.80901,0.5128863 1.06698,1.1769464 2.10596,2.3843574 3.09895,3.6249824 3.53399,4.4163564 7.38097,8.5359354 11.56894,12.3374154 6.14397,5.578869 12.80794,10.467545 19.81692,14.896421 1.34497,0.849994 2.70298,1.67929 4.04996,2.526585 0.1709,0.107414 0.31,0.265192 0.46402,0.399201 -0.0253,0.0383 -0.047,0.07649 -0.0712,0.114386 -0.17017,-0.03143 -0.34793,-0.04021 -0.50802,-0.09961 -0.42799,-0.15861 -0.85598,-0.321482 -1.26898,-0.513298 -3.30699,-1.529591 -6.51596,-3.240581 -9.65097,-5.097174 -4.45797,-2.640286 -8.77294,-5.490969 -12.84591,-8.697653 -4.82299,-3.79718 -9.26094,-7.982357 -12.92792,-12.936233 -0.3501,-0.4726551 -0.692,-0.9507846 -1.03902,-1.426562 -0.0369,0.2160194 -1.00499,-1.6452993 -0.96199,-1.4617135 l -0.373,2.9859745 c -0.007,-0.5066863 -1.02201,-4.4351871 -0.66801,-5.2168204 -0.1521,0.1152537 -0.22111,0.2433696 -0.28109,0.3757777 l -3.49999,5.3421397"
       style="fill:#ffffff;fill-opacity:1;fill-rule:nonzero;stroke:none;stroke-width:0.0999994"
       id="path36" />
    <path
       d="m 141.32567,8.2956118 c -0.0979,3.8898712 -0.0531,7.4558532 0.0379,11.3468302 0.10911,4.614777 0.27314,9.228054 0.404,13.842127 0.007,0.246115 0.077,0.399598 0.29302,0.5293 0.52698,0.315593 0.929,0.778096 1.08598,1.36869 0.17017,0.640999 0.30385,1.311696 0.31686,1.972692 0.0325,1.643692 -0.39999,3.215182 -0.879,4.772975 -0.18101,0.591797 -0.48699,1.195694 -0.475,1.787889 0.051,2.587088 0.19908,19.344799 0.30711,21.930786 0.004,0.121898 -0.0289,0.2457 -0.047,0.368698 -0.0325,-0.0011 -0.0668,-0.0023 -0.10008,-0.0035 -0.0289,-0.137499 -0.0679,-0.273401 -0.0842,-0.412498 -0.1951,-1.599191 -0.394,-17.37061 -0.577,-18.971 -0.18606,-1.626194 -0.22292,-3.253883 -0.98702,-4.789774 -0.77397,-1.558592 -1.242,-3.258985 -1.26498,-5.037076 -0.0144,-1.137092 0.23485,-2.184788 1.19301,-2.940285 0.10405,-0.08158 0.1521,-0.297998 0.14813,-0.449197 -0.13007,-4.394476 -0.31686,-8.787453 -0.39501,-13.182731 -0.069,-3.86988 -0.0889,-7.744057 -9.7e-4,-11.6140091 0.16692,-2.9831818 1.00697,-3.6570114 1.20196,-3.7007609 0.83001,-0.1863208 0.11814,0.8925769 -0.17812,3.1808438"
       style="fill:#ffffff;fill-opacity:1;fill-rule:nonzero;stroke:none;stroke-width:0.0999994"
       id="path38" />
    <path
       d="m 152.10659,52.711769 c -0.0549,-0.486696 -0.1149,-0.972593 -0.16403,-1.460091 -0.64799,-5.234774 -2.27599,-16.639812 -2.64,-18.376505 -0.0571,-0.502698 -0.49696,-2.694484 -0.68697,-3.154682 -0.43699,-1.381993 -0.51499,-2.588288 -0.69402,-3.897281 -0.21497,-1.57179 -0.50097,-3.124583 -1.112,-4.586676 -0.45798,-1.096492 -1.10798,-2.021788 -2.17898,-2.545687 -0.23014,-0.112508 -0.47799,-0.210889 -0.72797,-0.254317 -0.87301,-0.150805 -1.01601,-0.137509 -1.48699,0.756697 -0.45101,0.854297 -0.40502,1.766792 -0.13585,2.667188 0.323,1.082792 0.935,1.991389 1.61102,2.853483 1.07598,1.370692 2.30497,2.581586 3.59595,3.72728 0.15897,0.140581 0.29916,0.333188 0.38002,0.532396 1.12099,3.012086 3.01899,16.951113 3.35099,19.317901 0.13296,0.773096 0.50097,3.195284 0.61099,4.005879 0.0368,0.166414 0.0538,0.242214 0.10116,0.394497 0.0408,0.161716 0.18788,0.156188 0.17704,0.01987"
       style="fill:#ffffff;fill-opacity:1;fill-rule:nonzero;stroke:none;stroke-width:0.0999994"
       id="path40" />
    <path
       d="m 148.84863,61.198425 c 0.0108,-0.0847 0.0379,-0.1718 0.0325,-0.253497 -0.13801,-1.95309 0.007,-14.706126 -0.42199,-18.210005 -0.12104,-1.159395 -0.60698,-5.490673 -0.66099,-6.145668 -0.16692,-2.012489 -0.38099,-4.00898 -0.96799,-5.881267 -0.38301,-1.219894 -0.85801,-2.388289 -1.83098,-3.004687 -0.45,-0.285099 -0.88702,-0.560899 -1.51001,-0.483599 -0.16186,-0.03107 -0.42199,0.149288 -0.54899,0.328202 -0.57001,0.798 -0.71399,1.738991 -0.615,2.733186 0.10297,1.033894 0.46199,1.925691 0.92099,2.749585 1.07301,1.924593 2.448,3.484684 3.88199,4.974174 0.20305,0.210889 0.34214,0.764797 0.44298,1.071097 0.40101,2.111289 0.60301,3.889777 0.75703,5.934667 0.073,0.967994 0.22111,14.835525 0.32191,15.79802 0.0145,0.146097 0.0253,0.249598 0.0611,0.390997 0.0325,-0.01171 0.10586,0.01059 0.13802,-0.0012"
       style="fill:#ffffff;fill-opacity:1;fill-rule:nonzero;stroke:none;stroke-width:0.0999994"
       id="path42" />
    <path
       d="m 152.49361,40.068136 c -0.007,-0.08559 9.7e-4,-0.17541 -0.0217,-0.256304 -0.44201,-1.546091 -1.901,-12.821832 -3.60098,-17.733906 -0.30096,-0.920693 -0.656,-1.630392 -1.03399,-2.525686 -0.065,-0.152792 -0.22003,-0.578599 -0.23412,-0.641096 -0.11309,-1.682791 -0.29916,-3.353883 -0.74698,-4.982776 -0.24388,-0.885893 -0.562,-1.741791 -1.14203,-2.467185 -0.58999,-0.737096 -1.31996,-1.233193 -2.27797,-1.348392 -0.35299,-0.0426 -0.599,0.07421 -0.81,0.35389 -0.62898,0.833595 -0.67298,1.75629 -0.41198,2.715985 0.29987,1.104293 0.88499,2.066788 1.62699,2.904285 0.92398,1.041395 1.90599,2.03089 2.89897,3.005485 0.39501,0.388296 0.624,0.667597 0.97901,1.290191 0.742,1.668791 0.79699,1.931692 1.53298,4.13668 0.649,1.94769 2.77397,14.522623 2.97897,15.24922 0.0253,0.08819 0.0452,0.148385 0.10188,0.258183 0.0108,0.03071 0.077,0.149215 0.16114,0.0414"
       style="fill:#ffffff;fill-opacity:1;fill-rule:nonzero;stroke:none;stroke-width:0.0999994"
       id="path44" />
    <path
       d="m 129.75571,52.711769 c 0.0549,-0.486696 0.11489,-0.972593 0.16403,-1.460091 0.64802,-5.234774 2.27599,-16.639812 2.63999,-18.376505 0.0571,-0.502698 0.49701,-2.694484 0.68701,-3.154682 0.43699,-1.381993 0.51499,-2.588288 0.69398,-3.897281 0.21497,-1.57179 0.50101,-3.124583 1.112,-4.586676 0.45802,-1.096492 1.10799,-2.021788 2.17898,-2.545687 0.23015,-0.112508 0.47702,-0.210889 0.727,-0.254317 0.87402,-0.150805 1.01702,-0.137509 1.488,0.756697 0.45,0.854297 0.40498,1.766792 0.13585,2.667188 -0.32408,1.082792 -0.935,1.991389 -1.612,2.853483 -1.07496,1.370692 -2.30399,2.581586 -3.59595,3.72728 -0.15789,0.140581 -0.29915,0.333188 -0.379,0.532396 -1.12099,3.012086 -3.019,16.951113 -3.35099,19.317901 -0.13296,0.773096 -0.50199,3.195284 -0.61099,4.005879 -0.0369,0.166414 -0.0538,0.242214 -0.10116,0.394497 -0.0408,0.161716 -0.18896,0.156188 -0.17704,0.01987"
       style="fill:#ffffff;fill-opacity:1;fill-rule:nonzero;stroke:none;stroke-width:0.0999994"
       id="path46" />
    <path
       d="m 133.33869,61.198425 c -0.0108,-0.0847 -0.0379,-0.1718 -0.0325,-0.253497 0.13802,-1.95309 -0.007,-14.706126 0.42204,-18.210005 0.12211,-1.159395 0.60697,-5.490673 0.66196,-6.145668 0.1662,-2.012489 0.38103,-4.00898 0.96803,-5.881267 0.382,-1.219894 0.85797,-2.388289 1.83098,-3.004687 0.44999,-0.285099 0.88698,-0.560899 1.50899,-0.483599 0.16294,-0.03107 0.42199,0.149288 0.55,0.328202 0.56897,0.798 0.71299,1.738991 0.61399,2.733186 -0.10189,1.033894 -0.46101,1.925691 -0.92001,2.749585 -1.07298,1.924593 -2.44796,3.484684 -3.88296,4.974174 -0.20305,0.210889 -0.34215,0.764797 -0.44201,1.071097 -0.40101,2.111289 -0.60398,3.889777 -0.758,5.934667 -0.073,0.967994 -0.22003,14.835525 -0.32192,15.79802 -0.0145,0.146097 -0.0253,0.249598 -0.06,0.390997 -0.0325,-0.01171 -0.10694,0.01059 -0.13909,-0.0012"
       style="fill:#ffffff;fill-opacity:1;fill-rule:nonzero;stroke:none;stroke-width:0.0999994"
       id="path48" />
    <path
       d="m 129.36872,40.068136 c 0.007,-0.08559 -0.001,-0.17541 0.0217,-0.256304 0.441,-1.546091 1.89999,-12.821832 3.60098,-17.733906 0.30096,-0.920693 0.656,-1.630392 1.03399,-2.525686 0.0639,-0.152792 0.22003,-0.578599 0.23412,-0.641096 0.11309,-1.682791 0.29916,-3.353883 0.74698,-4.982776 0.24388,-0.885893 0.562,-1.741791 1.14199,-2.467185 0.59,-0.737096 1.32,-1.233193 2.27798,-1.348392 0.35299,-0.0426 0.59903,0.07421 0.81003,0.35389 0.62898,0.833595 0.67197,1.75629 0.41198,2.715985 -0.29987,1.104293 -0.88499,2.066788 -1.628,2.904285 -0.92301,1.041395 -1.90498,2.03089 -2.89796,3.005485 -0.39501,0.388296 -0.624,0.667597 -0.98002,1.290191 -0.742,1.668791 -0.79699,1.931692 -1.53197,4.13668 -0.65001,1.94769 -2.77502,14.522623 -2.979,15.24922 -0.0253,0.08819 -0.0452,0.148385 -0.10189,0.258183 -0.0108,0.03071 -0.077,0.149215 -0.16114,0.0414"
       style="fill:#ffffff;fill-opacity:1;fill-rule:nonzero;stroke:none;stroke-width:0.0999994"
       id="path50" />
  </g>
</svg>
